<svg id="Group_4070" data-name="Group 4070" xmlns="http://www.w3.org/2000/svg" xmlns:xlink="http://www.w3.org/1999/xlink" width="17.27" height="17.269" viewBox="0 0 17.27 17.269">
  <defs>
    <clipPath id="clip-path">
      <rect id="Rectangle_1308" data-name="Rectangle 1308" width="17.27" height="17.269" fill="#505050"/>
    </clipPath>
  </defs>
  <g id="Group_4069" data-name="Group 4069" clip-path="url(#clip-path)">
    <path id="Path_5358" data-name="Path 5358" d="M0,59.372a21.811,21.811,0,0,0,.674-2.21c.306-.972.58-1.955.861-2.935a1.225,1.225,0,0,1,.328-.549q3.58-3.555,7.151-7.117c.13-.13.214-.179.357-.015.209.24.591.439.625.692s-.375.465-.595.686q-3.193,3.207-6.4,6.4a.985.985,0,0,0-.268.449c-.245.871-.484,1.745-.767,2.605-.11.334.135.428.28.6.129.151.247.3.511.215.838-.267,1.685-.506,2.531-.748a1.008,1.008,0,0,0,.43-.3q3.431-3.432,6.857-6.869c.212-.214.338-.235.524,0,.21.268.666.457.647.749-.016.251-.416.48-.652.713q-3.176,3.144-6.35,6.291a2.551,2.551,0,0,1-1.163.686c-1.5.413-2.989.854-4.479,1.3C.967,60.053.8,60,.691,60.139H.461L0,59.679v-.307" transform="translate(0 -42.87)" fill="#505050"/>
    <path id="Path_5359" data-name="Path 5359" d="M158.155,4.069a3.93,3.93,0,0,1-.976,1.371c-.125.128-.189.154-.326.016q-2.062-2.075-4.139-4.134c-.14-.138-.112-.212.011-.332A3.086,3.086,0,0,1,154.164,0h.23a2.568,2.568,0,0,1,1.392.828c.438.462.9.9,1.351,1.35a3.162,3.162,0,0,1,1.018,1.506Z" transform="translate(-140.885 -0.001)" fill="#505050"/>
    <path id="Path_5360" data-name="Path 5360" d="M46.511,76.5c.183-.937-.5-.98-1.09-1.07-.028-.134.061-.164.108-.21q3.454-3.456,6.905-6.913c.246-.248.377-.233.586.013a8.891,8.891,0,0,0,.731.732c.144.134.193.215.019.387q-3.446,3.409-6.878,6.832a.563.563,0,0,1-.382.229" transform="translate(-41.923 -62.886)" fill="#505050"/>
    <path id="Path_5361" data-name="Path 5361" d="M134.69,28.794a.5.5,0,0,1-.064.1c-.288.272-.578.541-.867.812-.12.113-.181,0-.247-.067q-2.17-2.167-4.34-4.333c-.113-.112-.1-.171.008-.269.248-.22.494-.445.726-.682.143-.146.236-.117.369.016q2.137,2.145,4.284,4.281c.045.045.086.093.131.142" transform="translate(-119.166 -22.392)" fill="#505050"/>
  </g>
</svg>
